<svg width="811" height="200" viewBox="0 0 811 200" fill="none" xmlns="http://www.w3.org/2000/svg">
<path d="M33.654 104.778C29.4887 103.358 25.702 101.938 22.294 100.518C18.886 99.0033 15.9513 97.2047 13.49 95.122C11.0287 93.0393 9.088 90.578 7.668 87.738C6.34267 84.8033 5.68 81.2533 5.68 77.088C5.68 69.0413 8.75667 62.604 14.91 57.776C21.158 52.948 29.8673 50.534 41.038 50.534C45.1087 50.534 48.8953 50.818 52.398 51.386C55.9007 51.954 58.8827 52.8533 61.344 54.084C63.9 55.22 65.888 56.7347 67.308 58.628C68.728 60.4267 69.438 62.5567 69.438 65.018C69.438 67.4793 68.87 69.6093 67.734 71.408C66.598 73.112 65.2253 74.5793 63.616 75.81C61.5333 74.4847 58.7407 73.3487 55.238 72.402C51.7353 71.3607 47.9013 70.84 43.736 70.84C39.476 70.84 36.352 71.4553 34.364 72.686C32.376 73.822 31.382 75.2893 31.382 77.088C31.382 78.508 31.9973 79.6913 33.228 80.638C34.4587 81.49 36.3047 82.2947 38.766 83.052L46.292 85.466C55.1907 88.306 62.0067 91.9507 66.74 96.4C71.568 100.755 73.982 106.719 73.982 114.292C73.982 122.339 70.8107 128.871 64.468 133.888C58.1253 138.811 48.8007 141.272 36.494 141.272C32.1393 141.272 28.0687 140.893 24.282 140.136C20.59 139.473 17.324 138.479 14.484 137.154C11.7387 135.734 9.56133 134.03 7.952 132.042C6.43733 129.959 5.68 127.593 5.68 124.942C5.68 122.197 6.48467 119.877 8.094 117.984C9.70333 115.996 11.4547 114.481 13.348 113.44C15.9987 115.523 19.2173 117.321 23.004 118.836C26.8853 120.351 31.098 121.108 35.642 121.108C40.2807 121.108 43.5467 120.398 45.44 118.978C47.3333 117.558 48.28 115.901 48.28 114.008C48.28 112.115 47.5227 110.695 46.008 109.748C44.4933 108.707 42.3633 107.713 39.618 106.766L33.654 104.778ZM100.713 121.392C99.6722 119.025 98.5362 116.375 97.3055 113.44C96.1695 110.505 94.9388 107.145 93.6135 103.358C92.3828 99.5713 91.0575 95.264 89.6375 90.436C88.3122 85.5133 86.8922 79.8807 85.3775 73.538C86.7028 72.2127 88.4542 71.0767 90.6315 70.13C92.9035 69.0887 95.3648 68.568 98.0155 68.568C101.329 68.568 104.074 69.278 106.251 70.698C108.429 72.0233 110.038 74.5793 111.079 78.366L122.297 117.416H122.865C124.001 114.197 125.09 110.695 126.132 106.908C127.267 103.121 128.356 99.24 129.398 95.264C130.439 91.1933 131.386 87.17 132.238 83.194C133.184 79.1233 133.989 75.1473 134.652 71.266C138.06 69.4673 141.799 68.568 145.869 68.568C149.183 68.568 151.928 69.278 154.105 70.698C156.283 72.118 157.371 74.5793 157.371 78.082C157.371 80.638 157.04 83.62 156.378 87.028C155.715 90.3413 154.816 93.8913 153.68 97.678C152.638 101.465 151.36 105.393 149.846 109.464C148.426 113.44 146.911 117.369 145.302 121.25C143.692 125.131 142.035 128.823 140.331 132.326C138.628 135.734 136.971 138.811 135.361 141.556C132.711 146.195 130.25 149.981 127.978 152.916C125.705 155.851 123.528 158.123 121.446 159.732C119.363 161.436 117.28 162.572 115.197 163.14C113.115 163.803 110.937 164.134 108.666 164.134C104.689 164.134 101.471 162.951 99.0095 160.584C96.5482 158.217 95.0808 155.141 94.6075 151.354C97.6368 148.987 100.666 146.337 103.695 143.402C106.725 140.562 109.47 137.627 111.932 134.598C110.322 134.125 108.571 133.036 106.677 131.332C104.879 129.533 102.891 126.22 100.713 121.392ZM217.998 95.264C217.998 92.3293 217.146 90.1993 215.442 88.874C213.832 87.454 211.608 86.744 208.768 86.744C206.874 86.744 204.981 86.9807 203.088 87.454C201.289 87.9273 199.727 88.6373 198.402 89.584V138.858C197.455 139.142 195.94 139.426 193.858 139.71C191.87 139.994 189.787 140.136 187.61 140.136C185.527 140.136 183.634 139.994 181.93 139.71C180.32 139.426 178.948 138.858 177.812 138.006C176.676 137.154 175.776 136.018 175.114 134.598C174.546 133.083 174.262 131.143 174.262 128.776V86.176C174.262 83.62 174.782 81.5373 175.824 79.928C176.96 78.3187 178.474 76.8513 180.368 75.526C183.586 73.254 187.61 71.408 192.438 69.988C197.36 68.568 202.804 67.858 208.768 67.858C219.465 67.858 227.701 70.2247 233.476 74.958C239.25 79.5967 242.138 86.0813 242.138 94.412V138.858C241.191 139.142 239.676 139.426 237.594 139.71C235.606 139.994 233.523 140.136 231.346 140.136C229.263 140.136 227.37 139.994 225.666 139.71C224.056 139.426 222.684 138.858 221.548 138.006C220.412 137.154 219.512 136.018 218.85 134.598C218.282 133.083 217.998 131.143 217.998 128.776V95.264ZM303.057 86.886C300.69 86.886 298.418 87.2647 296.241 88.022C294.158 88.7793 292.312 89.9153 290.703 91.43C289.188 92.85 287.957 94.6487 287.011 96.826C286.064 99.0033 285.591 101.559 285.591 104.494C285.591 110.363 287.247 114.765 290.561 117.7C293.969 120.635 298.087 122.102 302.915 122.102C305.755 122.102 308.216 121.771 310.299 121.108C312.382 120.445 314.228 119.735 315.837 118.978C317.73 120.303 319.15 121.771 320.097 123.38C321.044 124.895 321.517 126.741 321.517 128.918C321.517 132.799 319.671 135.829 315.979 138.006C312.287 140.089 307.175 141.13 300.643 141.13C294.679 141.13 289.283 140.278 284.455 138.574C279.627 136.775 275.461 134.314 271.959 131.19C268.551 127.971 265.9 124.137 264.007 119.688C262.113 115.239 261.167 110.316 261.167 104.92C261.167 98.672 262.161 93.2287 264.149 88.59C266.231 83.8567 269.024 79.9753 272.527 76.946C276.029 73.9167 280.053 71.6447 284.597 70.13C289.235 68.6153 294.111 67.858 299.223 67.858C306.039 67.858 311.293 69.0887 314.985 71.55C318.677 74.0113 320.523 77.1827 320.523 81.064C320.523 82.8627 320.097 84.5667 319.245 86.176C318.393 87.6907 317.399 89.016 316.263 90.152C314.654 89.3947 312.713 88.6847 310.441 88.022C308.169 87.2647 305.707 86.886 303.057 86.886ZM419.987 95.264C419.987 92.3293 419.135 90.1993 417.431 88.874C415.822 87.454 413.597 86.744 410.757 86.744C408.864 86.744 406.971 86.9807 405.077 87.454C403.279 87.9273 401.717 88.6373 400.391 89.584V138.858C399.445 139.142 397.93 139.426 395.847 139.71C393.859 139.994 391.777 140.136 389.599 140.136C387.517 140.136 385.623 139.994 383.919 139.71C382.31 139.426 380.937 138.858 379.801 138.006C378.665 137.154 377.766 136.018 377.103 134.598C376.535 133.083 376.251 131.143 376.251 128.776V86.176C376.251 83.62 376.772 81.5373 377.813 79.928C378.949 78.3187 380.464 76.8513 382.357 75.526C385.576 73.254 389.599 71.408 394.427 69.988C399.35 68.568 404.793 67.858 410.757 67.858C421.455 67.858 429.691 70.2247 435.465 74.958C441.24 79.5967 444.127 86.0813 444.127 94.412V138.858C443.181 139.142 441.666 139.426 439.583 139.71C437.595 139.994 435.513 140.136 433.335 140.136C431.253 140.136 429.359 139.994 427.655 139.71C426.046 139.426 424.673 138.858 423.537 138.006C422.401 137.154 421.502 136.018 420.839 134.598C420.271 133.083 419.987 131.143 419.987 128.776V95.264ZM478.536 79.076C477.494 80.6853 476.264 81.8687 474.844 82.626C473.424 83.3833 471.625 83.762 469.448 83.762C467.649 83.762 465.992 83.5727 464.478 83.194C462.963 82.8153 461.496 82.2947 460.076 81.632C460.549 75.8573 461.022 70.0827 461.496 64.308C461.969 58.5333 462.3 53.1847 462.49 48.262C463.815 47.5047 465.519 46.7947 467.602 46.132C469.779 45.4693 471.862 45.138 473.85 45.138C475.364 45.138 476.832 45.28 478.252 45.564C479.766 45.848 481.092 46.3687 482.228 47.126C483.364 47.7887 484.263 48.7353 484.926 49.966C485.588 51.102 485.92 52.522 485.92 54.226C485.92 56.1193 485.73 58.202 485.352 60.474C484.973 62.746 484.405 65.018 483.648 67.29C482.985 69.562 482.18 71.7393 481.234 73.822C480.382 75.9047 479.482 77.656 478.536 79.076ZM565.727 92.85C569.703 92.85 572.732 91.9507 574.815 90.152C576.992 88.2587 578.081 85.4187 578.081 81.632C578.081 78.0347 576.945 75.2893 574.673 73.396C572.496 71.408 569.277 70.414 565.017 70.414C563.502 70.414 562.224 70.4613 561.183 70.556C560.236 70.556 559.242 70.6507 558.201 70.84V92.85H565.727ZM558.343 138.432C557.302 138.716 555.645 139 553.373 139.284C551.196 139.568 549.018 139.71 546.841 139.71C544.664 139.71 542.723 139.521 541.019 139.142C539.41 138.858 538.037 138.29 536.901 137.438C535.765 136.586 534.913 135.403 534.345 133.888C533.777 132.373 533.493 130.385 533.493 127.924V61.042C533.493 59.054 534.014 57.5393 535.055 56.498C536.191 55.362 537.706 54.4627 539.599 53.8C542.818 52.664 546.462 51.8593 550.533 51.386C554.698 50.818 558.864 50.534 563.029 50.534C576.093 50.534 586.08 53.3267 592.991 58.912C599.902 64.4973 603.357 72.0707 603.357 81.632C603.357 86.2707 602.6 90.4833 601.085 94.27C599.665 97.962 597.488 101.181 594.553 103.926C591.713 106.577 588.068 108.659 583.619 110.174C579.264 111.594 574.2 112.304 568.425 112.304H558.343V138.432ZM645.823 138.858C644.781 139.047 643.219 139.284 641.137 139.568C639.149 139.947 637.113 140.136 635.031 140.136C632.948 140.136 631.055 139.994 629.351 139.71C627.741 139.426 626.369 138.858 625.233 138.006C624.097 137.154 623.197 136.018 622.535 134.598C621.967 133.083 621.683 131.143 621.683 128.776V46.416C622.724 46.2267 624.239 45.99 626.227 45.706C628.309 45.3273 630.392 45.138 632.475 45.138C634.557 45.138 636.403 45.28 638.013 45.564C639.717 45.848 641.137 46.416 642.273 47.268C643.409 48.12 644.261 49.3033 644.829 50.818C645.491 52.238 645.823 54.1313 645.823 56.498V138.858ZM750.003 121.392C748.962 119.025 747.826 116.375 746.595 113.44C745.459 110.505 744.228 107.145 742.903 103.358C741.672 99.5713 740.347 95.264 738.927 90.436C737.602 85.5133 736.182 79.8807 734.667 73.538C735.992 72.2127 737.744 71.0767 739.921 70.13C742.193 69.0887 744.654 68.568 747.305 68.568C750.618 68.568 753.364 69.278 755.541 70.698C757.718 72.0233 759.328 74.5793 760.369 78.366L771.587 117.416H772.155C773.291 114.197 774.38 110.695 775.421 106.908C776.557 103.121 777.646 99.24 778.687 95.264C779.728 91.1933 780.675 87.17 781.527 83.194C782.474 79.1233 783.278 75.1473 783.941 71.266C787.349 69.4673 791.088 68.568 795.159 68.568C798.472 68.568 801.218 69.278 803.395 70.698C805.572 72.118 806.661 74.5793 806.661 78.082C806.661 80.638 806.33 83.62 805.667 87.028C805.004 90.3413 804.105 93.8913 802.969 97.678C801.928 101.465 800.65 105.393 799.135 109.464C797.715 113.44 796.2 117.369 794.591 121.25C792.982 125.131 791.325 128.823 789.621 132.326C787.917 135.734 786.26 138.811 784.651 141.556C782 146.195 779.539 149.981 777.267 152.916C774.995 155.851 772.818 158.123 770.735 159.732C768.652 161.436 766.57 162.572 764.487 163.14C762.404 163.803 760.227 164.134 757.955 164.134C753.979 164.134 750.76 162.951 748.299 160.584C745.838 158.217 744.37 155.141 743.897 151.354C746.926 148.987 749.956 146.337 752.985 143.402C756.014 140.562 758.76 137.627 761.221 134.598C759.612 134.125 757.86 133.036 755.967 131.332C754.168 129.533 752.18 126.22 750.003 121.392Z" fill="#F0F0F0"/>
<path d="M714 104L675 78V130L714 104Z" fill="#F0F0F0" stroke="#F0F0F0" stroke-width="18" stroke-linejoin="round"/>
</svg>
