<svg width="803" height="200" viewBox="0 0 803 200" fill="none" xmlns="http://www.w3.org/2000/svg">
<path d="M65.604 118.41C65.604 125.605 62.906 131.237 57.51 135.308C52.114 139.379 44.162 141.414 33.654 141.414C29.678 141.414 25.986 141.13 22.578 140.562C19.17 139.994 16.2353 139.142 13.774 138.006C11.4073 136.775 9.514 135.261 8.094 133.462C6.76867 131.663 6.106 129.533 6.106 127.072C6.106 124.8 6.57933 122.907 7.526 121.392C8.47267 119.783 9.60867 118.457 10.934 117.416C13.6793 118.931 16.8033 120.303 20.306 121.534C23.9033 122.67 28.0213 123.238 32.66 123.238C35.5947 123.238 37.8193 122.812 39.334 121.96C40.9433 121.108 41.748 119.972 41.748 118.552C41.748 117.227 41.18 116.185 40.044 115.428C38.908 114.671 37.0147 114.055 34.364 113.582L30.104 112.73C21.868 111.121 15.7147 108.612 11.644 105.204C7.668 101.701 5.68 96.7313 5.68 90.294C5.68 86.7913 6.43733 83.62 7.952 80.78C9.46667 77.94 11.5967 75.5733 14.342 73.68C17.0873 71.7867 20.3533 70.3193 24.14 69.278C28.0213 68.2367 32.2813 67.716 36.92 67.716C40.4227 67.716 43.6887 68 46.718 68.568C49.842 69.0413 52.54 69.7987 54.812 70.84C57.084 71.8813 58.8827 73.254 60.208 74.958C61.5333 76.5673 62.196 78.508 62.196 80.78C62.196 82.9573 61.77 84.8507 60.918 86.46C60.1607 87.9747 59.1667 89.2527 57.936 90.294C57.1787 89.8207 56.0427 89.3473 54.528 88.874C53.0133 88.306 51.3567 87.8327 49.558 87.454C47.7593 86.9807 45.9133 86.602 44.02 86.318C42.2213 86.034 40.5647 85.892 39.05 85.892C35.926 85.892 33.512 86.2707 31.808 87.028C30.104 87.6907 29.252 88.7793 29.252 90.294C29.252 91.3353 29.7253 92.1873 30.672 92.85C31.6187 93.5127 33.4173 94.128 36.068 94.696L40.47 95.69C49.558 97.7727 55.9953 100.66 59.782 104.352C63.6633 107.949 65.604 112.635 65.604 118.41ZM93.0865 121.392C92.0452 119.025 90.9092 116.375 89.6785 113.44C88.5425 110.505 87.3119 107.145 85.9865 103.358C84.7559 99.5713 83.4305 95.264 82.0105 90.436C80.6852 85.5133 79.2652 79.8807 77.7505 73.538C79.0759 72.2127 80.8272 71.0767 83.0045 70.13C85.2765 69.0887 87.7379 68.568 90.3885 68.568C93.7019 68.568 96.4472 69.278 98.6245 70.698C100.802 72.0233 102.411 74.5793 103.453 78.366L114.671 117.416H115.239C116.375 114.197 117.463 110.695 118.505 106.908C119.641 103.121 120.729 99.24 121.771 95.264C122.812 91.1933 123.759 87.17 124.611 83.194C125.557 79.1233 126.362 75.1473 127.025 71.266C130.433 69.4673 134.172 68.568 138.243 68.568C141.556 68.568 144.301 69.278 146.479 70.698C148.656 72.118 149.745 74.5793 149.745 78.082C149.745 80.638 149.413 83.62 148.751 87.028C148.088 90.3413 147.189 93.8913 146.053 97.678C145.011 101.465 143.733 105.393 142.219 109.464C140.799 113.44 139.284 117.369 137.675 121.25C136.065 125.131 134.409 128.823 132.705 132.326C131.001 135.734 129.344 138.811 127.735 141.556C125.084 146.195 122.623 149.981 120.351 152.916C118.079 155.851 115.901 158.123 113.819 159.732C111.736 161.436 109.653 162.572 107.571 163.14C105.488 163.803 103.311 164.134 101.039 164.134C97.0625 164.134 93.8439 162.951 91.3825 160.584C88.9212 158.217 87.4539 155.141 86.9805 151.354C90.0099 148.987 93.0392 146.337 96.0685 143.402C99.0979 140.562 101.843 137.627 104.305 134.598C102.695 134.125 100.944 133.036 99.0505 131.332C97.2519 129.533 95.2639 126.22 93.0865 121.392ZM210.371 95.264C210.371 92.3293 209.519 90.1993 207.815 88.874C206.205 87.454 203.981 86.744 201.141 86.744C199.247 86.744 197.354 86.9807 195.461 87.454C193.662 87.9273 192.1 88.6373 190.775 89.584V138.858C189.828 139.142 188.313 139.426 186.231 139.71C184.243 139.994 182.16 140.136 179.983 140.136C177.9 140.136 176.007 139.994 174.303 139.71C172.693 139.426 171.321 138.858 170.185 138.006C169.049 137.154 168.149 136.018 167.487 134.598C166.919 133.083 166.635 131.143 166.635 128.776V86.176C166.635 83.62 167.155 81.5373 168.197 79.928C169.333 78.3187 170.847 76.8513 172.741 75.526C175.959 73.254 179.983 71.408 184.811 69.988C189.733 68.568 195.177 67.858 201.141 67.858C211.838 67.858 220.074 70.2247 225.849 74.958C231.623 79.5967 234.511 86.0813 234.511 94.412V138.858C233.564 139.142 232.049 139.426 229.967 139.71C227.979 139.994 225.896 140.136 223.719 140.136C221.636 140.136 219.743 139.994 218.039 139.71C216.429 139.426 215.057 138.858 213.921 138.006C212.785 137.154 211.885 136.018 211.223 134.598C210.655 133.083 210.371 131.143 210.371 128.776V95.264ZM295.43 86.886C293.063 86.886 290.791 87.2647 288.614 88.022C286.531 88.7793 284.685 89.9153 283.076 91.43C281.561 92.85 280.331 94.6487 279.384 96.826C278.437 99.0033 277.964 101.559 277.964 104.494C277.964 110.363 279.621 114.765 282.934 117.7C286.342 120.635 290.46 122.102 295.288 122.102C298.128 122.102 300.589 121.771 302.672 121.108C304.755 120.445 306.601 119.735 308.21 118.978C310.103 120.303 311.523 121.771 312.47 123.38C313.417 124.895 313.89 126.741 313.89 128.918C313.89 132.799 312.044 135.829 308.352 138.006C304.66 140.089 299.548 141.13 293.016 141.13C287.052 141.13 281.656 140.278 276.828 138.574C272 136.775 267.835 134.314 264.332 131.19C260.924 127.971 258.273 124.137 256.38 119.688C254.487 115.239 253.54 110.316 253.54 104.92C253.54 98.672 254.534 93.2287 256.522 88.59C258.605 83.8567 261.397 79.9753 264.9 76.946C268.403 73.9167 272.426 71.6447 276.97 70.13C281.609 68.6153 286.484 67.858 291.596 67.858C298.412 67.858 303.666 69.0887 307.358 71.55C311.05 74.0113 312.896 77.1827 312.896 81.064C312.896 82.8627 312.47 84.5667 311.618 86.176C310.766 87.6907 309.772 89.016 308.636 90.152C307.027 89.3947 305.086 88.6847 302.814 88.022C300.542 87.2647 298.081 86.886 295.43 86.886ZM412.36 95.264C412.36 92.3293 411.508 90.1993 409.804 88.874C408.195 87.454 405.97 86.744 403.13 86.744C401.237 86.744 399.344 86.9807 397.45 87.454C395.652 87.9273 394.09 88.6373 392.764 89.584V138.858C391.818 139.142 390.303 139.426 388.22 139.71C386.232 139.994 384.15 140.136 381.972 140.136C379.89 140.136 377.996 139.994 376.292 139.71C374.683 139.426 373.31 138.858 372.174 138.006C371.038 137.154 370.139 136.018 369.476 134.598C368.908 133.083 368.624 131.143 368.624 128.776V86.176C368.624 83.62 369.145 81.5373 370.186 79.928C371.322 78.3187 372.837 76.8513 374.73 75.526C377.949 73.254 381.972 71.408 386.8 69.988C391.723 68.568 397.166 67.858 403.13 67.858C413.828 67.858 422.064 70.2247 427.838 74.958C433.613 79.5967 436.5 86.0813 436.5 94.412V138.858C435.554 139.142 434.039 139.426 431.956 139.71C429.968 139.994 427.886 140.136 425.708 140.136C423.626 140.136 421.732 139.994 420.028 139.71C418.419 139.426 417.046 138.858 415.91 138.006C414.774 137.154 413.875 136.018 413.212 134.598C412.644 133.083 412.36 131.143 412.36 128.776V95.264ZM470.909 79.076C469.867 80.6853 468.637 81.8687 467.217 82.626C465.797 83.3833 463.998 83.762 461.821 83.762C460.022 83.762 458.365 83.5727 456.851 83.194C455.336 82.8153 453.869 82.2947 452.449 81.632C452.922 75.8573 453.395 70.0827 453.869 64.308C454.342 58.5333 454.673 53.1847 454.863 48.262C456.188 47.5047 457.892 46.7947 459.975 46.132C462.152 45.4693 464.235 45.138 466.223 45.138C467.737 45.138 469.205 45.28 470.625 45.564C472.139 45.848 473.465 46.3687 474.601 47.126C475.737 47.7887 476.636 48.7353 477.299 49.966C477.961 51.102 478.293 52.522 478.293 54.226C478.293 56.1193 478.103 58.202 477.725 60.474C477.346 62.746 476.778 65.018 476.021 67.29C475.358 69.562 474.553 71.7393 473.607 73.822C472.755 75.9047 471.855 77.656 470.909 79.076ZM555.686 67.858C561.366 67.858 566.62 68.6153 571.448 70.13C576.371 71.55 580.583 73.7747 584.086 76.804C587.589 79.8333 590.334 83.6673 592.322 88.306C594.31 92.85 595.304 98.2933 595.304 104.636C595.304 110.695 594.452 115.996 592.748 120.54C591.044 125.084 588.63 128.918 585.506 132.042C582.382 135.071 578.595 137.343 574.146 138.858C569.791 140.373 564.916 141.13 559.52 141.13C555.449 141.13 551.663 140.515 548.16 139.284V162.856C547.213 163.14 545.699 163.424 543.616 163.708C541.533 164.087 539.403 164.276 537.226 164.276C535.143 164.276 533.25 164.134 531.546 163.85C529.937 163.566 528.564 162.998 527.428 162.146C526.292 161.294 525.44 160.111 524.872 158.596C524.304 157.176 524.02 155.283 524.02 152.916V84.756C524.02 82.2 524.541 80.1173 525.582 78.508C526.718 76.8987 528.233 75.4313 530.126 74.106C533.061 72.2127 536.705 70.698 541.06 69.562C545.415 68.426 550.29 67.858 555.686 67.858ZM555.97 122.102C565.721 122.102 570.596 116.28 570.596 104.636C570.596 98.5773 569.365 94.0807 566.904 91.146C564.537 88.2113 561.082 86.744 556.538 86.744C554.739 86.744 553.13 86.9807 551.71 87.454C550.29 87.8327 549.059 88.306 548.018 88.874V120.114C549.154 120.682 550.385 121.155 551.71 121.534C553.035 121.913 554.455 122.102 555.97 122.102ZM638.75 138.858C637.709 139.047 636.147 139.284 634.064 139.568C632.076 139.947 630.041 140.136 627.958 140.136C625.876 140.136 623.982 139.994 622.278 139.71C620.669 139.426 619.296 138.858 618.16 138.006C617.024 137.154 616.125 136.018 615.462 134.598C614.894 133.083 614.61 131.143 614.61 128.776V46.416C615.652 46.2267 617.166 45.99 619.154 45.706C621.237 45.3273 623.32 45.138 625.402 45.138C627.485 45.138 629.331 45.28 630.94 45.564C632.644 45.848 634.064 46.416 635.2 47.268C636.336 48.12 637.188 49.3033 637.756 50.818C638.419 52.238 638.75 54.1313 638.75 56.498V138.858ZM742.931 121.392C741.889 119.025 740.753 116.375 739.523 113.44C738.387 110.505 737.156 107.145 735.831 103.358C734.6 99.5713 733.275 95.264 731.855 90.436C730.529 85.5133 729.109 79.8807 727.595 73.538C728.92 72.2127 730.671 71.0767 732.849 70.13C735.121 69.0887 737.582 68.568 740.233 68.568C743.546 68.568 746.291 69.278 748.469 70.698C750.646 72.0233 752.255 74.5793 753.297 78.366L764.515 117.416H765.083C766.219 114.197 767.307 110.695 768.349 106.908C769.485 103.121 770.573 99.24 771.615 95.264C772.656 91.1933 773.603 87.17 774.455 83.194C775.401 79.1233 776.206 75.1473 776.869 71.266C780.277 69.4673 784.016 68.568 788.087 68.568C791.4 68.568 794.145 69.278 796.323 70.698C798.5 72.118 799.589 74.5793 799.589 78.082C799.589 80.638 799.257 83.62 798.595 87.028C797.932 90.3413 797.033 93.8913 795.897 97.678C794.855 101.465 793.577 105.393 792.063 109.464C790.643 113.44 789.128 117.369 787.519 121.25C785.909 125.131 784.253 128.823 782.549 132.326C780.845 135.734 779.188 138.811 777.579 141.556C774.928 146.195 772.467 149.981 770.195 152.916C767.923 155.851 765.745 158.123 763.663 159.732C761.58 161.436 759.497 162.572 757.415 163.14C755.332 163.803 753.155 164.134 750.883 164.134C746.907 164.134 743.688 162.951 741.227 160.584C738.765 158.217 737.298 155.141 736.825 151.354C739.854 148.987 742.883 146.337 745.913 143.402C748.942 140.562 751.687 137.627 754.149 134.598C752.539 134.125 750.788 133.036 748.895 131.332C747.096 129.533 745.108 126.22 742.931 121.392Z" fill="#284B63"/>
<path d="M707 104L668 78V130L707 104Z" fill="#284B63" stroke="#284B63" stroke-width="17" stroke-linejoin="round"/>
</svg>
